<svg width="64" height="64" viewBox="0 0 64 64" xmlns="http://www.w3.org/2000/svg">
  <defs>
    <linearGradient id="customGradient" x1="0%" y1="0%" x2="100%" y2="100%">
      <stop offset="0%" style="stop-color:#f59e0b;stop-opacity:1" />
      <stop offset="100%" style="stop-color:#d97706;stop-opacity:1" />
    </linearGradient>
  </defs>
  
  <!-- Main gear -->
  <circle cx="32" cy="32" r="18" fill="url(#customGradient)" stroke="white" stroke-width="2"/>
  <circle cx="32" cy="32" r="8" fill="white"/>
  
  <!-- Gear teeth -->
  <rect x="30" y="8" width="4" height="8" fill="url(#customGradient)"/>
  <rect x="30" y="48" width="4" height="8" fill="url(#customGradient)"/>
  <rect x="8" y="30" width="8" height="4" fill="url(#customGradient)"/>
  <rect x="48" y="30" width="8" height="4" fill="url(#customGradient)"/>
  
  <!-- Diagonal teeth -->
  <rect x="44" y="16" width="6" height="4" fill="url(#customGradient)" transform="rotate(45 47 18)"/>
  <rect x="44" y="44" width="6" height="4" fill="url(#customGradient)" transform="rotate(-45 47 46)"/>
  <rect x="14" y="16" width="6" height="4" fill="url(#customGradient)" transform="rotate(-45 17 18)"/>
  <rect x="14" y="44" width="6" height="4" fill="url(#customGradient)" transform="rotate(45 17 46)"/>
  
  <!-- Tool icon -->
  <path d="M28 28 L36 36 M28 36 L36 28" stroke="#1e5cb3" stroke-width="2" stroke-linecap="round"/>
</svg>