<svg width="64" height="64" viewBox="0 0 64 64" xmlns="http://www.w3.org/2000/svg">
  <defs>
    <linearGradient id="supportGradient" x1="0%" y1="0%" x2="100%" y2="100%">
      <stop offset="0%" style="stop-color:#1e5cb3;stop-opacity:1" />
      <stop offset="100%" style="stop-color:#2d7dd2;stop-opacity:1" />
    </linearGradient>
  </defs>
  
  <!-- Headset base -->
  <path d="M16 28 C16 18 23 10 32 10 C41 10 48 18 48 28 L48 38 C48 42 45 45 41 45 L38 45 L38 35 L44 35 L44 28 C44 20 38.8 14 32 14 C25.2 14 20 20 20 28 L20 35 L26 35 L26 45 L23 45 C19 45 16 42 16 38 Z" 
        fill="url(#supportGradient)" stroke="white" stroke-width="2"/>
  
  <!-- Microphone -->
  <rect x="30" y="40" width="4" height="12" rx="2" fill="url(#supportGradient)"/>
  <circle cx="32" cy="54" r="3" fill="#f59e0b"/>
  
  <!-- Sound waves -->
  <path d="M52 24 C54 26 54 30 52 32" stroke="white" stroke-width="2" 
        stroke-linecap="round" fill="none"/>
  <path d="M56 20 C59 23 59 33 56 36" stroke="white" stroke-width="2" 
        stroke-linecap="round" fill="none"/>
  
  <path d="M12 24 C10 26 10 30 12 32" stroke="white" stroke-width="2" 
        stroke-linecap="round" fill="none"/>
  <path d="M8 20 C5 23 5 33 8 36" stroke="white" stroke-width="2" 
        stroke-linecap="round" fill="none"/>
</svg>